<svg xmlns="http://www.w3.org/2000/svg" xmlns:xlink="http://www.w3.org/1999/xlink" version="1.1" id="Layer_1" x="0px" y="0px" width="196.3px" height="56.6px" viewBox="0 0 196.3 56.6" enable-background="new 0 0 196.3 56.6" xml:space="preserve"><path fill="#295CAA" d="M65.3 21.7c0 0.2 0 0.2-0.2 0.2h-2.6c-0.2 0-0.2 0-0.2-0.2v-0.6c0-0.2 0-0.2 0.2-0.2H63v-5.3h-0.5c-0.2 0-0.2 0-0.2-0.2v-0.6c0-0.2 0-0.2 0.2-0.2H65c0.2 0 0.2 0 0.2 0.2v0.6c0 0.2 0 0.2-0.2 0.2h-0.5v5.3H65c0.2 0 0.2 0 0.2 0.2V21.7z"/><path fill="#295CAA" d="M72.1 21.7c0 0.2 0 0.2-0.2 0.2h-0.7c-0.2 0-0.2 0-0.2-0.2l-2-3.7c-0.3-0.6-0.4-0.9-0.6-1.5h0c0 0.4 0.1 0.7 0.1 1.2v3.1h0.5c0.2 0 0.2 0 0.2 0.2v0.6c0 0.2 0 0.2-0.2 0.2h-2.3c-0.2 0-0.2 0-0.2-0.2v-0.6c0-0.2 0-0.2 0.2-0.2h0.5v-5.3h-0.5c-0.2 0-0.2 0-0.2-0.2v-0.6c0-0.2 0-0.2 0.2-0.2h1.7c0.2 0 0.2 0 0.2 0.1l1.8 3.3c0.3 0.6 0.5 1.1 0.6 1.6h0c0-0.3 0-1.1 0-1.4v-2.6h-0.5c-0.2 0-0.2 0-0.2-0.2v-0.6c0-0.2 0-0.2 0.2-0.2h2.3c0.2 0 0.2 0 0.2 0.2v0.6c0 0.2 0 0.2-0.2 0.2h-0.5V21.7z"/><path fill="#295CAA" d="M77.8 21.7c0 0.2 0 0.2-0.2 0.2h-2.9c-0.2 0-0.2 0-0.2-0.2v-0.6c0-0.2 0-0.2 0.2-0.2h0.7v-5.2h-0.8v1c0 0.2 0 0.2-0.2 0.2h-0.6c-0.2 0-0.2 0-0.2-0.2v-2c0-0.2 0-0.2 0.2-0.2h4.7c0.1 0 0.2 0 0.2 0.2v2c0 0.2 0 0.2-0.2 0.2h-0.6c-0.2 0-0.2 0-0.2-0.2v-1h-0.8v5.2h0.7c0.2 0 0.2 0 0.2 0.2V21.7z"/><path fill="#295CAA" d="M84.4 21.7c0 0.2 0 0.2-0.2 0.2h-4.3c-0.2 0-0.2 0-0.2-0.2v-0.6c0-0.2 0-0.2 0.2-0.2h0.5v-5.3h-0.5c-0.2 0-0.2 0-0.2-0.2v-0.6c0-0.2 0-0.2 0.2-0.2h4.3c0.2 0 0.2 0 0.2 0.2v1.6c0 0.2-0.1 0.2-0.2 0.2h-0.7c-0.2 0-0.2 0-0.2-0.2v-0.7h-1.4v1.8h1.8c0.2 0 0.2 0 0.2 0.2v0.7c0 0.2 0 0.2-0.2 0.2h-1.8v2.1h1.4V20c0-0.2 0-0.2 0.2-0.2h0.7c0.2 0 0.2 0 0.2 0.2V21.7z"/><path fill="#295CAA" d="M91.5 21.7c0 0.2 0 0.2-0.2 0.2h-1.4c-0.2 0-0.2 0-0.2-0.2l-1.5-2.9h-0.5v2h0.5c0.2 0 0.2 0 0.2 0.2v0.6c0 0.2 0 0.2-0.2 0.2h-2.5c-0.2 0-0.2 0-0.2-0.2v-0.6c0-0.2 0-0.2 0.2-0.2h0.5v-5.3h-0.5c-0.2 0-0.2 0-0.2-0.2v-0.6c0-0.2 0-0.2 0.2-0.2h2.5c0.8 0 2.5 0.1 2.5 2.1 0 1.4-0.8 1.8-1.2 2l1.3 2.3h0.5c0.2 0 0.2 0 0.2 0.2V21.7zM88 17.8c0.7 0 1.3-0.1 1.3-1.1 0-0.9-0.6-1-1.2-1h-0.4v2.1H88z"/><path fill="#295CAA" d="M98.1 21.7c0 0.2 0 0.2-0.2 0.2h-0.7c-0.2 0-0.2 0-0.2-0.2l-2-3.7c-0.3-0.6-0.4-0.9-0.6-1.5h0c0 0.4 0.1 0.7 0.1 1.2v3.1h0.5c0.2 0 0.2 0 0.2 0.2v0.6c0 0.2 0 0.2-0.2 0.2h-2.3c-0.2 0-0.2 0-0.2-0.2v-0.6c0-0.2 0-0.2 0.2-0.2h0.5v-5.3h-0.5c-0.2 0-0.2 0-0.2-0.2v-0.6c0-0.2 0-0.2 0.2-0.2h1.7c0.2 0 0.2 0 0.2 0.1l1.8 3.3c0.3 0.6 0.5 1.1 0.6 1.6h0c0-0.3 0-1.1 0-1.4v-2.6h-0.5c-0.2 0-0.2 0-0.2-0.2v-0.6c0-0.2 0-0.2 0.2-0.2h2.3c0.2 0 0.2 0 0.2 0.2v0.6c0 0.2 0 0.2-0.2 0.2h-0.5V21.7z"/><path fill="#295CAA" d="M105.7 21.7c0 0.2 0 0.2-0.2 0.2h-2.2c-0.2 0-0.2 0-0.2-0.2v-0.6c0-0.2 0-0.2 0.2-0.2h0.3l-0.2-0.9h-1.9l-0.2 0.9h0.4c0.2 0 0.2 0 0.2 0.2v0.6c0 0.2 0 0.2-0.2 0.2h-2.1c-0.2 0-0.2 0-0.2-0.2v-0.6c0-0.2 0-0.2 0.2-0.2h0.3l1.9-6.2c0-0.2 0.1-0.2 0.2-0.2h1.1c0.2 0 0.2 0 0.2 0.2l1.8 6.2h0.4c0.2 0 0.2 0 0.2 0.2V21.7zM102.6 17.2c-0.1-0.4-0.2-1.1-0.2-1.5h0c0 0.5-0.1 1.1-0.2 1.5l-0.5 1.9h1.4L102.6 17.2z"/><path fill="#295CAA" d="M110.3 21.7c0 0.2 0 0.2-0.2 0.2h-2.9c-0.2 0-0.2 0-0.2-0.2v-0.6c0-0.2 0-0.2 0.2-0.2h0.7v-5.2h-0.8v1c0 0.2 0 0.2-0.2 0.2h-0.6c-0.2 0-0.2 0-0.2-0.2v-2c0-0.2 0-0.2 0.2-0.2h4.7c0.1 0 0.2 0 0.2 0.2v2c0 0.2 0 0.2-0.2 0.2h-0.6c-0.2 0-0.2 0-0.2-0.2v-1h-0.8v5.2h0.7c0.2 0 0.2 0 0.2 0.2V21.7z"/><path fill="#295CAA" d="M115.1 21.7c0 0.2 0 0.2-0.2 0.2h-2.6c-0.2 0-0.2 0-0.2-0.2v-0.6c0-0.2 0-0.2 0.2-0.2h0.5v-5.3h-0.5c-0.2 0-0.2 0-0.2-0.2v-0.6c0-0.2 0-0.2 0.2-0.2h2.6c0.2 0 0.2 0 0.2 0.2v0.6c0 0.2 0 0.2-0.2 0.2h-0.5v5.3h0.5c0.2 0 0.2 0 0.2 0.2V21.7z"/><path fill="#295CAA" d="M118.6 22.1c-1.7 0-2.7-1.3-2.7-3.9 0-2.6 1-3.9 2.7-3.9 1.7 0 2.7 1.3 2.7 3.9C121.3 20.9 120.3 22.1 118.6 22.1zM119.8 18.3c0-1.7-0.3-2.7-1.2-2.7s-1.2 1.1-1.2 2.7 0.3 2.7 1.2 2.7S119.8 20 119.8 18.3z"/><path fill="#295CAA" d="M127.9 21.7c0 0.2 0 0.2-0.2 0.2H127c-0.2 0-0.2 0-0.2-0.2l-2-3.7c-0.3-0.6-0.4-0.9-0.6-1.5h0c0 0.4 0.1 0.7 0.1 1.2v3.1h0.5c0.2 0 0.2 0 0.2 0.2v0.6c0 0.2 0 0.2-0.2 0.2h-2.3c-0.2 0-0.2 0-0.2-0.2v-0.6c0-0.2 0-0.2 0.2-0.2h0.5v-5.3h-0.5c-0.2 0-0.2 0-0.2-0.2v-0.6c0-0.2 0-0.2 0.2-0.2h1.7c0.2 0 0.2 0 0.2 0.1l1.8 3.3c0.3 0.6 0.5 1.1 0.6 1.6h0c0-0.3 0-1.1 0-1.4v-2.6h-0.5c-0.2 0-0.2 0-0.2-0.2v-0.6c0-0.2 0-0.2 0.2-0.2h2.3c0.2 0 0.2 0 0.2 0.2v0.6c0 0.2 0 0.2-0.2 0.2h-0.5V21.7z"/><path fill="#295CAA" d="M135.5 21.7c0 0.2 0 0.2-0.2 0.2h-2.2c-0.2 0-0.2 0-0.2-0.2v-0.6c0-0.2 0-0.2 0.2-0.2h0.3l-0.2-0.9h-1.9l-0.2 0.9h0.4c0.2 0 0.2 0 0.2 0.2v0.6c0 0.2 0 0.2-0.2 0.2h-2.1c-0.2 0-0.2 0-0.2-0.2v-0.6c0-0.2 0-0.2 0.2-0.2h0.3l1.9-6.2c0-0.2 0.1-0.2 0.2-0.2h1.1c0.2 0 0.2 0 0.2 0.2l1.8 6.2h0.4c0.2 0 0.2 0 0.2 0.2V21.7zM132.5 17.2c-0.1-0.4-0.2-1.1-0.2-1.5h0c0 0.5-0.1 1.1-0.2 1.5l-0.5 1.9h1.4L132.5 17.2z"/><path fill="#295CAA" d="M137.2 15.6h-0.5c-0.2 0-0.2 0-0.2-0.2v-0.6c0-0.2 0-0.2 0.2-0.2h2.6c0.2 0 0.2 0 0.2 0.2v0.6c0 0.2 0 0.2-0.2 0.2h-0.6v5.2h1.6l0.2-0.8c0-0.1 0-0.2 0.1-0.2 0.1 0 0.1 0 0.2 0l0.7 0.2c0.2 0 0.2 0.1 0.2 0.1 0 0 0 0.1 0 0.1l-0.3 1.5c0 0.2-0.1 0.2-0.2 0.2h-4.4c-0.2 0-0.2 0-0.2-0.2v-0.6c0-0.2 0-0.2 0.2-0.2h0.5V15.6z"/><path fill="#295CAA" d="M63.8 28.4h-0.9c-0.3 0-0.4-0.1-0.4-0.4v-1c0-0.3 0.1-0.4 0.4-0.4h4.3c0.3 0 0.4 0.1 0.4 0.4v1c0 0.3-0.1 0.4-0.4 0.4h-1v8.6h2.6l0.3-1.4c0.1-0.2 0.1-0.3 0.2-0.3 0.1 0 0.2 0 0.3 0.1l1.2 0.3c0.3 0.1 0.3 0.1 0.3 0.2 0 0.1 0 0.2 0 0.2l-0.6 2.6c-0.1 0.3-0.1 0.3-0.4 0.3h-7.3c-0.3 0-0.4-0.1-0.4-0.4v-1c0-0.3 0.1-0.4 0.4-0.4h0.9V28.4z"/><path fill="#295CAA" d="M80.9 38.7c0 0.2 0 0.3-0.3 0.3h-2.4c-0.4 0-0.4-0.4-0.6-0.8 -0.5 0.5-1 1.1-2.7 1.1 -1.9 0-2.3-1.3-2.3-2.8v-4.7h-0.9c-0.2 0-0.3-0.1-0.3-0.3v-1.2c0-0.2 0-0.3 0.3-0.3h2.9c0.2 0 0.3 0.1 0.3 0.3v5.5c0 0.7 0.1 1.6 1 1.6 0.8 0 1.3-0.5 1.5-0.7v-5h-0.9c-0.2 0-0.3-0.1-0.3-0.3v-1.2c0-0.2 0-0.3 0.3-0.3h2.9c0.2 0 0.3 0.1 0.3 0.3v5.4c0 0.9 0.1 1.1 0.2 1.5h0.8c0.2 0 0.3 0.1 0.3 0.3V38.7z"/><path fill="#295CAA" d="M85 36.1c0 0.6 0 1.1 0.6 1.1 0.7 0 1.2-0.3 1.4-0.3 0.1 0 0.1 0 0.1 0.1l0.4 1.5c0 0.1 0 0.1 0 0.2 0 0.3-1.3 0.7-2.5 0.7 -2.3 0-2.3-1.8-2.3-3.5v-4h-1.3c-0.2 0-0.3-0.1-0.3-0.3v-1.2c0-0.2 0-0.3 0.3-0.3h1.3v-2.3c0-0.2 0-0.3 0.3-0.3l1.6-0.2c0.1 0 0.1 0 0.2 0 0.2 0 0.2 0.1 0.2 0.3v2.5h2c0.2 0 0.3 0 0.3 0.2 0 0.1 0 0.1 0 0.2l-0.3 1.1c-0.1 0.2-0.2 0.3-0.3 0.3H85V36.1z"/><path fill="#295CAA" d="M97.9 38.7c0 0.2 0 0.3-0.3 0.3h-2.9c-0.2 0-0.3-0.1-0.3-0.3v-5.5c0-0.7-0.1-1.5-1-1.5 -0.8 0-1.3 0.5-1.5 0.8v4.9h0.9c0.2 0 0.3 0.1 0.3 0.3v1.2c0 0.2 0 0.3-0.3 0.3h-4.1c-0.2 0-0.3-0.1-0.3-0.3v-1.2c0-0.2 0-0.3 0.3-0.3h0.9v-9.5h-0.9c-0.2 0-0.3-0.1-0.3-0.3v-1.2c0-0.2 0-0.3 0.3-0.3h2.9c0.2 0 0.3 0.1 0.3 0.3v4.5c0.5-0.4 1.2-1 2.5-1 1.9 0 2.3 1.3 2.3 2.8v4.7h0.9c0.2 0 0.3 0.1 0.3 0.3V38.7z"/><path fill="#295CAA" d="M101.3 35.2c0 1 0.3 2.2 2 2.2 1.3 0 2-0.6 2.3-0.6 0.1 0 0.2 0.1 0.2 0.1l0.4 1.1c0 0.1 0.1 0.1 0.1 0.2 0 0.5-1.8 1.1-3.2 1.1 -2.4 0-4-1.3-4-4.7 0-2.9 1.5-4.8 3.9-4.8 3.1 0 3.6 2.7 3.6 4.9 0 0.3-0.1 0.4-0.4 0.4H101.3zM104.1 33.5c0-0.7-0.1-2-1.3-2 -1.4 0-1.5 1.5-1.5 2H104.1z"/><path fill="#295CAA" d="M112.3 38.7c0 0.2 0 0.3-0.3 0.3h-4.2c-0.2 0-0.3-0.1-0.3-0.3v-1.2c0-0.2 0-0.3 0.3-0.3h0.9v-4c0-0.9-0.1-1.1-0.2-1.5h-0.9c-0.2 0-0.3-0.1-0.3-0.3v-1.2c0-0.2 0-0.3 0.3-0.3h2.3c0.5 0 0.5 0.7 0.7 1.1 0.3-0.4 1-1.4 2.2-1.4 0.5 0 1 0.2 1 0.4 0 0.1 0 0.1 0 0.2l-0.6 1.5c0 0.1-0.1 0.2-0.1 0.2 -0.1 0-0.4-0.2-0.8-0.2 -0.6 0-1.1 0.6-1.4 0.9v4.6h1c0.2 0 0.3 0.1 0.3 0.3V38.7z"/><path fill="#295CAA" d="M121.5 35.8c0 0.8 0.1 1.1 0.2 1.5h0.8c0.2 0 0.3 0.1 0.3 0.3v1.2c0 0.2 0 0.3-0.3 0.3h-2.2c-0.4 0-0.5-0.4-0.5-0.8 -0.4 0.4-1 1.1-2.3 1.1 -1.7 0-2.7-1.1-2.7-2.8 0-3 3.3-3 4.7-3v-0.6c0-0.8-0.1-1.3-1.3-1.3 -1 0-2 0.5-2.2 0.5 -0.1 0-0.2-0.1-0.2-0.2l-0.4-1.1c0-0.1-0.1-0.1-0.1-0.2 0-0.4 1.8-0.8 3.2-0.8 2.2 0 3.1 1 3.1 2.9V35.8zM119.4 35c-0.4 0-2.5-0.1-2.5 1.4 0 0.7 0.5 1.2 1.2 1.2 0.7 0 1.1-0.5 1.3-0.7V35z"/><path fill="#295CAA" d="M133.2 38.7c0 0.2 0 0.3-0.2 0.3H130c-0.2 0-0.3-0.1-0.3-0.3v-5.5c0-0.7-0.1-1.5-1-1.5 -0.8 0-1.3 0.5-1.5 0.7v4.9h0.9c0.2 0 0.3 0.1 0.3 0.3v1.2c0 0.2 0 0.3-0.3 0.3H124c-0.2 0-0.2-0.1-0.2-0.3v-1.2c0-0.2 0-0.3 0.2-0.3h0.9v-4c0-0.9-0.1-1.1-0.2-1.5h-0.9c-0.2 0-0.3-0.1-0.3-0.3v-1.2c0-0.2 0-0.3 0.3-0.3h2.5c0.4 0 0.4 0.5 0.6 0.9 0.5-0.5 1.3-1.2 2.7-1.2 1.9 0 2.3 1.3 2.3 2.8v4.7h0.9c0.2 0 0.2 0.1 0.2 0.3V38.7z"/><path fill="#295CAA" d="M147.3 38.3c0 0.6-1.6 1-3.1 1 -3.3 0-4.9-2-4.9-6.4 0-4.1 1.6-6.6 4.8-6.6 1.3 0 3 0.5 3 1.2V30c0 0.3-0.1 0.3-0.3 0.3h-1.3c-0.3 0-0.3-0.1-0.3-0.3v-1.5c-0.3-0.1-0.6-0.2-1-0.2 -1.7 0-2.4 1.1-2.4 4.1 0 3.1 0.4 4.9 2.6 4.9 0.3 0 0.6 0 1-0.1v-1.6c0-0.2 0.1-0.3 0.3-0.3h1.3c0.3 0 0.3 0.1 0.3 0.3V38.3z"/><path fill="#295CAA" d="M152.5 39.3c-2.4 0-3.9-1.9-3.9-4.7 0-2.9 1.5-4.7 3.9-4.7 2.4 0 3.9 1.9 3.9 4.7C156.4 37.5 154.9 39.3 152.5 39.3zM153.9 34.6c0-1.7-0.2-2.9-1.5-2.9 -1.2 0-1.5 1.3-1.5 2.9 0 1.7 0.2 2.9 1.5 2.9S153.9 36.3 153.9 34.6z"/><path fill="#295CAA" d="M166.7 38.7c0 0.2 0 0.3-0.2 0.3h-2.4c-0.4 0-0.4-0.4-0.6-0.8 -0.5 0.5-1 1.1-2.7 1.1 -1.9 0-2.3-1.3-2.3-2.8v-4.7h-0.9c-0.2 0-0.2-0.1-0.2-0.3v-1.2c0-0.2 0-0.3 0.2-0.3h2.9c0.2 0 0.3 0.1 0.3 0.3v5.5c0 0.7 0.1 1.6 1 1.6 0.8 0 1.3-0.5 1.5-0.7v-5h-0.9c-0.2 0-0.3-0.1-0.3-0.3v-1.2c0-0.2 0-0.3 0.3-0.3h2.9c0.2 0 0.3 0.1 0.3 0.3v5.4c0 0.9 0.1 1.1 0.2 1.5h0.8c0.2 0 0.2 0.1 0.2 0.3V38.7z"/><path fill="#295CAA" d="M177.3 38.7c0 0.2 0 0.3-0.2 0.3h-2.9c-0.2 0-0.3-0.1-0.3-0.3v-5.5c0-0.7-0.1-1.5-1-1.5 -0.8 0-1.3 0.5-1.5 0.7v4.9h0.9c0.2 0 0.3 0.1 0.3 0.3v1.2c0 0.2 0 0.3-0.3 0.3h-4.1c-0.2 0-0.2-0.1-0.2-0.3v-1.2c0-0.2 0-0.3 0.2-0.3h0.9v-4c0-0.9-0.1-1.1-0.2-1.5H168c-0.2 0-0.3-0.1-0.3-0.3v-1.2c0-0.2 0-0.3 0.3-0.3h2.5c0.4 0 0.4 0.5 0.6 0.9 0.5-0.5 1.3-1.2 2.7-1.2 1.9 0 2.3 1.3 2.3 2.8v4.7h0.9c0.2 0 0.2 0.1 0.2 0.3V38.7z"/><path fill="#295CAA" d="M184.7 38.4c0 0.1 0.1 0.1 0.1 0.2 0 0.4-1.4 0.7-2.5 0.7 -2.5 0-4-1.5-4-4.6 0-3.1 1.5-4.9 4.2-4.9 0.9 0 2.2 0.3 2.2 0.8V33c0 0.2-0.1 0.3-0.3 0.3h-1.3c-0.2 0-0.3 0-0.3-0.3v-1.3c-0.1-0.1-0.3-0.1-0.4-0.1 -1.3 0-1.8 0.9-1.8 3 0 2 0.5 2.9 1.8 2.9 0.9 0 1.4-0.4 1.6-0.4 0.1 0 0.1 0 0.1 0.1L184.7 38.4z"/><path fill="#295CAA" d="M190.9 38.7c0 0.2 0 0.3-0.2 0.3H186c-0.2 0-0.3-0.1-0.3-0.3v-1.2c0-0.2 0-0.3 0.3-0.3h1.1v-5.5H186c-0.2 0-0.3-0.1-0.3-0.3v-1.2c0-0.2 0-0.3 0.3-0.3h3.2c0.2 0 0.3 0.1 0.3 0.3v7h1.2c0.2 0 0.2 0.1 0.2 0.3V38.7zM188.3 29c-0.8 0-1.5-0.7-1.5-1.5s0.7-1.5 1.5-1.5c0.8 0 1.5 0.6 1.5 1.5S189.1 29 188.3 29z"/><path fill="#295CAA" d="M192.2 27.8h-0.9c-0.2 0-0.3-0.1-0.3-0.3v-1.2c0-0.2 0-0.3 0.3-0.3h2.9c0.2 0 0.3 0.1 0.3 0.3v9.8c0 0.6 0 1.1 0.5 1.1 0.4 0 0.6-0.2 0.7-0.2 0.1 0 0.1 0 0.1 0.1l0.4 1.5c0 0 0 0.1 0 0.1 0 0.3-1 0.5-1.8 0.5 -2.2 0-2.2-1.8-2.2-3.5V27.8z"/><polygon fill="#D78E28" points="45.6 28.3 45.6 24.9 56.6 28.3 45.6 31.7 "/><polygon fill="#D78E28" points="11 28.3 11 31.7 0 28.3 11 24.9 "/><polygon fill="#D78E28" points="28.3 11 24.9 11 28.3 0 31.7 11 "/><polygon fill="#D78E28" points="28.3 45.6 31.7 45.6 28.3 56.6 24.9 45.6 "/><path fill="#EFAF38" stroke="#D58D29" stroke-width="0.25" stroke-miterlimit="10" d="M7.5 28.1c0-11.5 9.3-20.7 20.7-20.7C39.7 7.4 49 16.7 49 28.1c0 11.5-9.3 20.7-20.7 20.7C16.8 48.9 7.5 39.6 7.5 28.1L7.5 28.1z"/><polyline fill="#EFAF38" points="28.3 56.6 25.8 48.5 28.3 48.4 "/><path fill="#EFAF38" d="M9.9 28.1c0-10.2 8.2-18.4 18.4-18.4 10.2 0 18.4 8.2 18.4 18.4 0 10.2-8.2 18.4-18.4 18.4C18.1 46.5 9.9 38.3 9.9 28.1L9.9 28.1z"/><path fill="#295CAA" d="M11.2 28.1c0-9.5 7.7-17.1 17.1-17.1 9.5 0 17.1 7.7 17.1 17.1 0 9.5-7.7 17.1-17.1 17.1C18.8 45.3 11.2 37.6 11.2 28.1L11.2 28.1z"/><polygon fill="#EFAF38" points="40.5 15.8 38.7 13.9 44.9 11.3 42.3 17.6 "/><polygon fill="#EFAF38" points="16.1 40.2 17.9 42 11.6 44.6 14.2 38.4 "/><polygon fill="#EFAF38" points="16.1 15.8 14.2 17.6 11.6 11.3 17.9 13.9 "/><polygon fill="#EFAF38" points="40.5 40.2 42.3 38.4 44.9 44.6 38.7 42 "/><line fill="none" stroke="#D58D29" stroke-width="0.5" stroke-linecap="round" stroke-linejoin="round" stroke-miterlimit="10" x1="28.5" y1="8.3" x2="28.5" y2="10.1"/><line fill="none" stroke="#D58D29" stroke-width="0.5" stroke-linecap="round" stroke-linejoin="round" stroke-miterlimit="10" x1="28.5" y1="46.2" x2="28.5" y2="48"/><line fill="none" stroke="#D58D29" stroke-width="0.5" stroke-linecap="round" stroke-linejoin="round" stroke-miterlimit="10" x1="48.3" y1="28.2" x2="46.5" y2="28.2"/><line fill="none" stroke="#D58D29" stroke-width="0.5" stroke-linecap="round" stroke-linejoin="round" stroke-miterlimit="10" x1="10.4" y1="28.2" x2="8.6" y2="28.2"/><line fill="none" stroke="#D58D29" stroke-width="0.5" stroke-linecap="round" stroke-linejoin="round" stroke-miterlimit="10" x1="42.5" y1="42.2" x2="41.2" y2="40.9"/><line fill="none" stroke="#D58D29" stroke-width="0.5" stroke-linecap="round" stroke-linejoin="round" stroke-miterlimit="10" x1="15.7" y1="15.4" x2="14.4" y2="14.1"/><line fill="none" stroke="#D58D29" stroke-width="0.5" stroke-linecap="round" stroke-linejoin="round" stroke-miterlimit="10" x1="14.4" y1="42.2" x2="15.7" y2="40.9"/><line fill="none" stroke="#D58D29" stroke-width="0.5" stroke-linecap="round" stroke-linejoin="round" stroke-miterlimit="10" x1="21" y1="9.8" x2="21.7" y2="11.4"/><line fill="none" stroke="#D58D29" stroke-width="0.5" stroke-linecap="round" stroke-linejoin="round" stroke-miterlimit="10" x1="35.2" y1="44.9" x2="35.9" y2="46.6"/><line fill="none" stroke="#D58D29" stroke-width="0.5" stroke-linecap="round" stroke-linejoin="round" stroke-miterlimit="10" x1="36.2" y1="9.9" x2="35.5" y2="11.6"/><line fill="none" stroke="#D58D29" stroke-width="0.5" stroke-linecap="round" stroke-linejoin="round" stroke-miterlimit="10" x1="21.4" y1="44.8" x2="20.7" y2="46.4"/><line fill="none" stroke="#D58D29" stroke-width="0.5" stroke-linecap="round" stroke-linejoin="round" stroke-miterlimit="10" x1="46.9" y1="20.7" x2="45.2" y2="21.4"/><line fill="none" stroke="#D58D29" stroke-width="0.5" stroke-linecap="round" stroke-linejoin="round" stroke-miterlimit="10" x1="11.7" y1="34.9" x2="10.1" y2="35.6"/><line fill="none" stroke="#D58D29" stroke-width="0.5" stroke-linecap="round" stroke-linejoin="round" stroke-miterlimit="10" x1="46.7" y1="35.9" x2="45.1" y2="35.2"/><line fill="none" stroke="#D58D29" stroke-width="0.5" stroke-linecap="round" stroke-linejoin="round" stroke-miterlimit="10" x1="11.8" y1="21.1" x2="10.2" y2="20.4"/><polyline fill="#EFAF38" points="28.3 0 30.7 7.8 28.4 7.8 "/><polyline fill="#EFAF38" points="0 28.3 8 25.8 7.9 28.3 "/><polyline fill="#EFAF38" points="56.6 28.3 48.5 30.8 48.6 28.3 "/><path fill="#295CAA" d="M11.3 28.1c0-9.4 7.6-17 17-17 9.4 0 17 7.6 17 17 0 9.4-7.6 17-17 17C18.9 45.1 11.3 37.5 11.3 28.1L11.3 28.1z"/><path fill="#27A0DB" d="M16.4 28.1c0-6.5 5.3-11.8 11.8-11.8 6.5 0 11.8 5.3 11.8 11.8 0 6.5-5.3 11.8-11.8 11.8C21.8 40 16.4 34.6 16.4 28.1L16.4 28.1z"/><g opacity="0.3"><path fill="#93A9C5" d="M26.5 42c-0.5 0-1.2-0.3-1.9-0.7 -0.8-0.5-2.2-1.4-2.8-1.6 -0.5-0.1-1.3-0.2-1.6-0.2 -0.1 0-0.2 0-0.2 0l-0.1 0 0-0.1c0 0 0-0.7-0.3-1.2 -0.3-0.5-1.7-1.4-2.5-1.9 -0.2-0.2-0.4-0.3-0.5-0.3 0 0-0.1-0.1-0.1-0.1 -0.3-0.3-1-0.8-1-1.6 0.1-1.5 1.1-1.8 1.9-2.1 0.1 0 0.1 0 0.2-0.1 0.4-0.1 0.7-0.2 1.1-0.2 0.6-0.1 1.3-0.2 1.9-0.6 0.3-0.2 0.4-0.5 0.3-0.7 -0.1-0.3-0.4-0.5-0.7-0.6 0 0 0 0 0 0 -0.5 0-1.5 0.6-2.2 1.1 -0.4 0.2-0.7 0.4-0.9 0.6 -0.3 0.1-0.8 0.3-1.2 0.3 -0.6 0-1.1-0.3-1.5-0.8 -0.6-1.1-0.2-2.6 0.2-3.9 0.2-0.6 0.4-1.3 0.4-1.7 0.1-1.1-0.7-2-0.7-2l-0.1-0.2 0.2 0c0 0 0.8-0.2 1.4-0.9 0.3-0.5 0.4-0.7 0.7-1.4 0.1-0.3 0.3-0.8 0.6-1.3 0.7-1.5 1.3-2.2 2.2-2.2 0.2 0 0.5 0 0.9 0.2 1.1 0.3 1.6 1.6 1.9 2.6 0.1 0.2 0.2 0.5 0.3 0.6 0.2 0.4 0.5 0.6 0.9 0.6 0.2 0 0.4-0.1 0.4-0.1 0.3-0.1 0.4-0.2 0.4-0.6 0-0.7-0.5-1.1-1-1.5 -0.1-0.1-0.2-0.1-0.2-0.2 -0.1-0.1-0.2-0.1-0.2-0.2 -0.5-0.4-1.1-0.9-1.2-1.7 -0.2-1.6 1.5-2.2 2.1-2.3 0.2 0 0.8-0.1 1.4-0.1 0.9 0 1.9-0.1 2.2-0.1 0.7-0.1 1.1-0.8 1.2-0.8l0.1-0.2 0.1 0.2c0 0 0.2 0.3 0.8 0.6 0.5 0.3 1.4 0.3 2.1 0.3h0.1c0.2 0 0.5 0 0.7 0 0.1 0 0.3 0 0.5 0 0.9 0 2 0 2.5 0.8 0.5 0.7 0.4 1.5-0.2 2.4 -0.5 0.7-1.1 1.1-1.2 1.2 -0.4 0.3-0.8 0.7-0.9 1.2 -0.1 0.4-0.1 0.7 0.1 0.9 0.1 0.2 0.4 0.3 0.7 0.3 0.2 0 0.5-0.1 0.6-0.2 0.5-0.4 0.8-1.3 1-2 0.1-0.3 0.2-0.6 0.3-0.8 0.2-0.5 0.7-1.3 1.7-1.3 0 0 0 0 0.1 0 1.3 0 1.7 0.9 2 1.6 0.1 0.2 0.2 0.6 0.3 0.9 0.2 0.7 0.5 1.5 0.8 2.1 0.5 0.9 1.7 1.2 1.7 1.2l0.2 0.1 -0.1 0.2c0 0-0.8 1.3-0.4 2.4 0.2 0.5 0.7 2.1 0.9 2.9 0.1 0.8 0.3 1.8-1 2.4 -0.1 0.1-0.3 0.1-0.5 0.1 -0.8 0-1.8-0.6-2.7-1.1 -0.4-0.2-0.8-0.4-1.1-0.6 -0.2-0.1-0.4-0.1-0.7-0.1 -0.5 0-0.9 0.3-1 0.7 -0.1 0.5 0.5 1.2 1.7 1.4 0.3 0.1 0.7 0.1 1 0.1 0.8 0.1 1.6 0.2 2.3 0.8 0.4 0.4 0.6 0.8 0.7 1.2 0 0.6-0.3 1.1-0.6 1.4 -0.3 0.3-0.9 0.8-1.5 1.3 -0.5 0.4-1.1 0.9-1.4 1.2 -0.6 0.6-0.6 1.9-0.6 2l0 0.2 -0.2 0c0 0-0.5-0.1-1-0.1 -0.5 0-0.8 0-1 0.1 -0.5 0.2-1.5 0.9-2.2 1.3 -0.2 0.1-0.4 0.3-0.6 0.3 -0.1 0-0.2 0.1-0.3 0.2 -0.5 0.3-1 0.6-1.9 0.7 0 0-0.1 0-0.1 0 -0.5 0-0.9-0.2-1.1-0.7 -0.2-0.4-0.2-0.8-0.2-1.1 0-0.3 0.1-0.8 0.2-1.4 0.1-0.5 0.2-0.9 0.2-1.3 0-0.4-0.1-0.7-0.3-0.9 -0.1-0.1-0.3-0.2-0.6-0.2 0 0 0 0 0 0 -0.2 0-0.4 0.1-0.6 0.3 -0.2 0.3-0.3 0.7-0.2 1.3 0 0.2 0.1 0.4 0.1 0.6 0.1 0.7 0.3 1.3 0.2 1.9 -0.1 0.8-0.6 1.2-1 1.4C26.9 42 26.7 42 26.5 42z"/><path fill="#6885A5" d="M28.3 13.9c0 0 0.2 0.3 0.9 0.7 0.5 0.3 1.4 0.3 2.2 0.3 0 0 0 0 0.1 0 0.3 0 0.5 0 0.7 0 0.8 0 2.3-0.1 2.9 0.7 1 1.6-1 3.1-1.3 3.4 -0.3 0.2-0.8 0.7-1 1.3 -0.2 0.9 0.3 1.4 0.9 1.4 0.3 0 0.5-0.1 0.7-0.2 0.7-0.6 1-2.2 1.3-2.9 0.3-0.6 0.8-1.2 1.5-1.2 0 0 0 0 0.1 0 1.2 0 1.6 0.8 1.9 1.5 0.3 0.7 0.7 2.1 1.1 3 0.5 0.9 1.8 1.3 1.8 1.3s-0.8 1.4-0.4 2.5c0.2 0.5 0.7 2.1 0.8 2.9 0.2 0.8 0.3 1.7-0.9 2.3 -0.1 0.1-0.3 0.1-0.4 0.1 -1.1 0-2.8-1.3-3.7-1.6 -0.2-0.1-0.5-0.1-0.7-0.1 -0.6 0-1 0.3-1.1 0.8 -0.1 0.6 0.6 1.3 1.8 1.6 1.2 0.2 2.3 0 3.2 0.9 1.1 0.9 0.6 1.8 0 2.4 -0.5 0.6-2.2 1.8-2.9 2.4 -0.7 0.7-0.6 2.1-0.6 2.1s-0.5-0.1-1.1-0.1c-0.4 0-0.8 0-1.1 0.2 -0.7 0.3-2.2 1.3-2.7 1.6 -0.5 0.3-1 0.8-2.1 0.8 0 0-0.1 0-0.1 0 -1.1 0-1.2-1.1-1.2-1.7 0-0.6 0.5-1.9 0.5-2.6 0-0.7-0.2-1.3-1-1.3 0 0 0 0 0 0 -0.8 0-1.1 0.8-0.9 1.7 0.2 0.9 0.4 1.7 0.3 2.5 -0.1 0.8-0.6 1.1-1 1.3 -0.1 0.1-0.3 0.1-0.4 0.1 -0.5 0-1.2-0.2-1.8-0.7 -0.9-0.6-2.2-1.4-2.9-1.6 -0.5-0.1-1.3-0.2-1.6-0.2 -0.1 0-0.2 0-0.2 0s0-0.7-0.3-1.2c-0.5-0.8-2.7-2.1-3-2.3 -0.2-0.2-1.1-0.7-1-1.5 0.1-1.5 1.2-1.7 2-2 1-0.3 2.1-0.2 3-0.9 0.7-0.5 0.2-1.5-0.5-1.6 0 0 0 0 0 0 -0.8 0-2.5 1.3-3.1 1.6 -0.3 0.2-0.8 0.3-1.2 0.3 -0.5 0-1-0.2-1.3-0.8 -0.9-1.5 0.5-4 0.6-5.6 0.1-1.1-0.7-2.1-0.7-2.1s0.9-0.2 1.5-1c0.5-0.7 0.5-0.9 1.3-2.8 0.7-1.6 1.3-2.1 2-2.1 0.3 0 0.5 0.1 0.8 0.1 1.2 0.4 1.7 2.3 2.1 3.2 0.2 0.5 0.7 0.7 1 0.7 0.2 0 0.4 0 0.5-0.1 0.3-0.1 0.5-0.3 0.5-0.8 0-0.9-0.7-1.3-1.3-1.8 -0.6-0.5-1.3-0.9-1.4-1.8 -0.2-1.6 1.5-2.1 2-2.1 0.5-0.1 3.1-0.1 3.7-0.2C27.8 14.7 28.3 13.9 28.3 13.9M28.3 13.3l-0.2 0.4c0 0-0.5 0.7-1.1 0.8 -0.3 0.1-1.4 0.1-2.2 0.1 -0.7 0-1.3 0.1-1.5 0.1 -0.6 0.1-2.4 0.7-2.2 2.4 0.1 0.9 0.7 1.4 1.2 1.8 0.1 0.1 0.2 0.1 0.2 0.2 0.1 0.1 0.2 0.1 0.2 0.2 0.5 0.4 0.9 0.7 0.9 1.4 0 0.4-0.1 0.4-0.3 0.5 0 0-0.2 0.1-0.4 0.1 -0.3 0-0.6-0.2-0.7-0.5 -0.1-0.2-0.2-0.4-0.3-0.6 -0.4-1-0.9-2.3-2-2.7 -0.4-0.1-0.6-0.2-0.9-0.2 -0.5 0-0.9 0.2-1.2 0.5 -0.4 0.4-0.7 0.9-1.1 1.7 -0.3 0.6-0.4 1-0.6 1.3 -0.3 0.7-0.4 0.9-0.7 1.4 -0.5 0.7-1.3 0.9-1.3 0.9l-0.5 0.1 0.3 0.4c0 0 0.7 0.9 0.6 1.9 0 0.5-0.2 1.1-0.4 1.7 -0.4 1.4-0.8 2.9-0.2 4 0.4 0.6 0.9 0.9 1.6 0.9 0.5 0 1-0.2 1.3-0.3 0.2-0.1 0.6-0.3 0.9-0.6 0.7-0.4 1.6-1.1 2.1-1.1 0 0 0 0 0 0 0.2 0 0.5 0.2 0.5 0.5 0 0.2 0 0.4-0.2 0.6 -0.6 0.4-1.2 0.5-1.8 0.6 -0.4 0.1-0.8 0.1-1.1 0.3 -0.1 0-0.1 0-0.2 0.1 -0.8 0.3-2 0.7-2 2.2 0 0.9 0.7 1.4 1 1.7 0 0 0.1 0.1 0.1 0.1 0.1 0.1 0.2 0.1 0.5 0.3 0.7 0.4 2.1 1.3 2.4 1.9 0.3 0.4 0.3 1.1 0.3 1.1l0 0.3 0.3 0c0 0 0.1 0 0.2 0 0.3 0 1.1 0 1.5 0.2 0.6 0.2 2.1 1.1 2.8 1.6 0.7 0.4 1.4 0.7 2 0.7 0.2 0 0.4 0 0.6-0.1 0.4-0.2 1-0.6 1.1-1.5 0.1-0.7-0.1-1.3-0.2-2 0-0.2-0.1-0.4-0.1-0.6 -0.1-0.5 0-0.9 0.2-1.1 0.1-0.1 0.3-0.2 0.5-0.2 0 0 0 0 0 0 0.2 0 0.4 0.1 0.5 0.2 0.2 0.2 0.2 0.5 0.2 0.8 0 0.3-0.1 0.8-0.2 1.2 -0.1 0.5-0.3 1-0.2 1.4 0 0.3 0 0.8 0.2 1.2 0.2 0.5 0.7 0.8 1.3 0.8 0 0 0.1 0 0.1 0 1-0.1 1.5-0.4 2-0.7 0.1-0.1 0.2-0.1 0.2-0.2 0.1-0.1 0.3-0.2 0.6-0.3 0.7-0.4 1.6-1 2.2-1.3 0.1-0.1 0.4-0.1 1-0.1 0.5 0 1 0.1 1 0.1l0.3 0 0-0.3c0 0-0.1-1.3 0.5-1.8 0.3-0.3 0.9-0.7 1.4-1.2 0.6-0.5 1.2-1 1.5-1.3 0.3-0.3 0.7-0.9 0.7-1.5 0-0.5-0.3-0.9-0.7-1.3 -0.7-0.6-1.6-0.7-2.4-0.8 -0.3 0-0.7-0.1-1-0.1 -0.5-0.1-1-0.3-1.3-0.6 -0.2-0.2-0.4-0.5-0.3-0.7 0.1-0.4 0.5-0.6 0.9-0.6 0.2 0 0.4 0 0.6 0.1 0.3 0.1 0.7 0.3 1 0.6 0.9 0.5 1.9 1.1 2.8 1.1 0.2 0 0.4 0 0.5-0.1 0.6-0.3 1-0.7 1.1-1.2 0.1-0.5 0-1-0.1-1.4 -0.2-0.9-0.7-2.5-0.9-3 -0.4-1 0.4-2.3 0.4-2.3l0.2-0.3 -0.3-0.1c0 0-1.2-0.4-1.6-1.2 -0.3-0.6-0.6-1.4-0.8-2.1 -0.1-0.3-0.2-0.7-0.3-0.9 -0.2-0.4-0.3-0.8-0.7-1.1 -0.4-0.4-0.9-0.6-1.5-0.6 0 0 0 0-0.1 0 -0.8 0-1.4 0.5-1.8 1.3 -0.1 0.2-0.2 0.5-0.3 0.8 -0.2 0.7-0.5 1.6-1 1.9 -0.1 0.1-0.3 0.2-0.6 0.2 -0.3 0-0.5-0.1-0.6-0.2 -0.2-0.2-0.1-0.5-0.1-0.8 0.1-0.4 0.5-0.8 0.9-1.1 0.1-0.1 0.8-0.6 1.3-1.2 0.6-0.9 0.7-1.7 0.2-2.5 -0.5-0.8-1.7-0.8-2.6-0.8 -0.2 0-0.3 0-0.5 0 -0.2 0-0.5 0-0.7 0h-0.1c-0.7 0-1.6 0-2.1-0.3 -0.6-0.3-0.8-0.6-0.8-0.6L28.3 13.3 28.3 13.3z"/></g><path fill="#FFFFFF" d="M28.3 13.9c0 0-0.5 0.8-1.3 0.9 -0.6 0.1-3.2 0.2-3.7 0.2 -0.5 0.1-2.1 0.6-2 2.1 0.1 0.9 0.8 1.3 1.4 1.8 0.6 0.5 1.3 0.9 1.3 1.8 0 0.5-0.2 0.6-0.5 0.8 -0.3 0.1-1.1 0.3-1.5-0.6 -0.4-0.9-0.9-2.8-2.1-3.2 -1.1-0.4-1.9-0.2-2.8 1.9 -0.8 1.8-0.8 2.1-1.3 2.8 -0.6 0.8-1.5 1-1.5 1s0.8 1 0.7 2.1c-0.1 1.5-1.5 4.1-0.6 5.6 0.7 1.1 1.8 0.8 2.5 0.5 0.7-0.3 2.4-1.7 3.2-1.6 0.7 0 1.2 1 0.5 1.6 -1 0.7-2.1 0.6-3 0.9 -0.8 0.3-1.9 0.6-2 2 0 0.8 0.8 1.3 1 1.5 0.2 0.2 2.5 1.5 3 2.3 0.3 0.5 0.3 1.2 0.3 1.2s1.1 0 1.8 0.2c0.7 0.2 2 1 2.9 1.6 0.9 0.6 1.8 0.8 2.3 0.6 0.4-0.2 0.9-0.5 1-1.3 0.1-0.8-0.2-1.6-0.3-2.5 -0.2-0.9 0.2-1.7 0.9-1.7 0.8 0 1 0.6 1 1.3 0 0.7-0.5 2-0.5 2.6 0 0.6 0.1 1.8 1.3 1.7 1.1-0.1 1.6-0.5 2.1-0.8 0.5-0.3 2-1.3 2.7-1.6 0.6-0.3 2.1-0.1 2.1-0.1s-0.1-1.4 0.6-2.1c0.7-0.7 2.3-1.9 2.9-2.4 0.5-0.6 1-1.5 0-2.4 -1-0.8-2.1-0.6-3.2-0.9 -1.3-0.3-1.9-1-1.8-1.6 0.1-0.7 1-1 1.9-0.6 1 0.4 3.1 2 4.1 1.6 1.2-0.5 1.1-1.5 0.9-2.3 -0.2-0.8-0.7-2.4-0.8-2.9 -0.5-1.1 0.4-2.5 0.4-2.5s-1.3-0.4-1.8-1.3c-0.5-0.9-0.9-2.3-1.1-3 -0.3-0.7-0.7-1.5-1.9-1.5 -0.8 0-1.3 0.6-1.6 1.2 -0.3 0.7-0.6 2.3-1.3 2.9 -0.6 0.5-2 0.2-1.7-1.1 0.1-0.5 0.7-1 1-1.3 0.3-0.2 2.4-1.8 1.3-3.4 -0.5-0.8-2-0.7-2.9-0.7 -0.8 0-2.3 0.1-3-0.3C28.5 14.2 28.3 13.9 28.3 13.9L28.3 13.9z"/><path fill="#CF4E6D" d="M35 23.1c-1.7-1.7-4.4-1.7-6 0l-0.7 0.7 -0.6-0.6c-1.7-1.7-4.4-1.7-6 0 -1.7 1.7-1.7 4.4 0 6l0.6 0.6 6 6 6-6 0.7-0.7C36.7 27.4 36.7 24.7 35 23.1z"/><polygon fill="#010101" points="31.3 27.3 29.4 27.3 29.4 25.3 27.5 25.3 27.5 27.3 25.6 27.3 25.6 29.1 27.5 29.1 27.5 31 29.4 31 29.4 29.1 31.3 29.1 "/><line fill="none" stroke="#D58D29" stroke-width="0.5" stroke-linecap="round" stroke-linejoin="round" stroke-miterlimit="10" x1="41.2" y1="15.4" x2="42.5" y2="14.1"/><line fill="none" stroke="#D58D29" stroke-width="0.5" stroke-linecap="round" stroke-linejoin="round" stroke-miterlimit="10" x1="46.7" y1="35.9" x2="45.1" y2="35.2"/><line fill="none" stroke="#D58D29" stroke-width="0.5" stroke-linecap="round" stroke-linejoin="round" stroke-miterlimit="10" x1="11.8" y1="21.1" x2="10.2" y2="20.4"/></svg>